    <?xml version="1.0" encoding="UTF-8"?>
    <!DOCTYPE svg PUBLIC "-//W3C//DTD SVG 1.1//EN" "http://www.w3.org/Graphics/SVG/1.1/DTD/svg11.dtd">
    <svg xmlns="http://www.w3.org/2000/svg" version="1.1" width="96px" height="96px" style="shape-rendering:geometricPrecision; text-rendering:geometricPrecision; image-rendering:optimizeQuality; fill-rule:evenodd; clip-rule:evenodd" xmlns:xlink="http://www.w3.org/1999/xlink">
    <g><path style="opacity:0.967" fill="#adbbd0" d="M 21.5,8.5 C 33.8333,8.5 46.1667,8.5 58.5,8.5C 58.5,10.5 58.5,12.5 58.5,14.5C 48.1613,14.3335 37.828,14.5002 27.5,15C 20,15.8333 15.8333,20 15,27.5C 14.3333,33.1667 14.3333,38.8333 15,44.5C 20.1044,38.6884 26.271,37.1884 33.5,40C 39.3164,44.9822 44.9831,50.1488 50.5,55.5C 60.6079,44.6231 70.4412,44.9565 80,56.5C 80.4996,49.8417 80.6663,43.175 80.5,36.5C 82.5,36.5 84.5,36.5 86.5,36.5C 86.6665,48.8378 86.4999,61.1712 86,73.5C 83.8333,79.6667 79.6667,83.8333 73.5,86C 64.8333,86.1667 56.1667,86.3333 47.5,86.5C 37.7631,86.6281 28.0964,86.1281 18.5,85C 13.8558,82.3585 10.6891,78.5252 9,73.5C 8.33333,56.1667 8.33333,38.8333 9,21.5C 11.3531,15.3154 15.5198,10.982 21.5,8.5 Z M 25.5,45.5 C 26.8734,45.3433 28.2068,45.51 29.5,46C 35.0678,50.9457 40.4012,56.1123 45.5,61.5C 40.1754,68.1569 34.5087,74.4903 28.5,80.5C 20.5442,79.7103 16.0442,75.3769 15,67.5C 14.3333,62.8333 14.3333,58.1667 15,53.5C 18.4004,50.5862 21.9004,47.9195 25.5,45.5 Z M 61.5,54.5 C 63.5273,54.3379 65.5273,54.5045 67.5,55C 71.6667,58.5 75.8333,62 80,65.5C 80.1665,73.9716 75.9998,78.805 67.5,80C 58.1667,80.6667 48.8333,80.6667 39.5,80C 47.4168,71.9229 54.7501,63.4229 61.5,54.5 Z"/></g>
    <g><path style="opacity:0.988" fill="#acbbd0" d="M 72.5,8.5 C 74.5,8.5 76.5,8.5 78.5,8.5C 78.5,11.1667 78.5,13.8333 78.5,16.5C 81.1667,16.5 83.8333,16.5 86.5,16.5C 86.5,18.5 86.5,20.5 86.5,22.5C 83.8333,22.5 81.1667,22.5 78.5,22.5C 78.5,25.1667 78.5,27.8333 78.5,30.5C 76.5,30.5 74.5,30.5 72.5,30.5C 72.5,27.8333 72.5,25.1667 72.5,22.5C 69.8333,22.5 67.1667,22.5 64.5,22.5C 64.5,20.5 64.5,18.5 64.5,16.5C 67.1667,16.5 69.8333,16.5 72.5,16.5C 72.5,13.8333 72.5,11.1667 72.5,8.5 Z"/></g>
    <g><path style="opacity:0.934" fill="#acbbd0" d="M 33.5,19.5 C 43.4874,18.3319 46.154,22.1653 41.5,31C 31.4338,32.4671 28.7671,28.6338 33.5,19.5 Z"/></g>
    </svg>
